<?xml version="1.0" encoding="UTF-8"?>
<svg id="Layer_1" xmlns="http://www.w3.org/2000/svg" version="1.1" viewBox="0 0 499.32 200">
  <!-- Generator: Adobe Illustrator 29.5.0, SVG Export Plug-In . SVG Version: 2.1.0 Build 137)  -->
  <defs>
    <style>
      .st0 {
        stroke: #00758d;
        stroke-miterlimit: 10;
        stroke-width: 6px;
      }

      .st0, .st1 {
        fill: #00758d;
      }

      .st2 {
        fill: #fff;
      }
    </style>
  </defs>
  <path class="st1" d="M200,0H0v200h200V0Z"/>
  <path class="st2" d="M141.84,156.56H57.31v-13.81l28.5-43.38-26.92-39.39v-14.26h83l-.05,33.32h-14.76l-5.1-15.11h-34.99l23.26,35.4-26.28,39.03h37.95l4.96-16.74h14.97v34.95Z"/>
  <path class="st1" d="M318.24,121.98c0-18.54-7.09-29.09-38.39-32.03-16.3-1.48-19.5-4.63-19.5-10.75,0-7.57,3.43-13.49,19.95-13.49,12.64,0,22.52,2.74,33.03,6.12v-20.02c-11.16-4.85-22.94-6.12-32.81-6.12-31.08,0-41.18,17.71-41.18,33.51s6.44,27.2,38.17,29.92c16.74,1.48,19.31,6.11,19.31,13.08s-4.94,13.81-22.29,13.81h-.05v20.55c33.11-.05,43.8-17.71,43.8-34.55"/>
  <g>
    <path class="st0" d="M395.79,83.54h-15.32l-20.51,24.12c-2.02,2.46-4.48,5.49-6.21,7.94h-.29V50.9h-12.57v102.55h12.57v-26.29l6.5-7.22,24.12,33.51h15.45l-30.76-41.16,27.01-28.75Z"/>
    <path class="st0" d="M476.43,83.54l-13.86,41.02c-1.74,5.06-3.18,10.4-4.48,14.59h-.29c-1.16-4.19-2.89-9.67-4.48-14.3l-15.31-41.31h-13.87l25.85,64.42c.58,1.59.87,2.6.87,3.32s-.43,1.73-1.01,3.03c-2.89,6.5-7.22,11.41-10.69,14.16-3.75,3.18-7.94,5.2-11.11,6.21l3.18,10.69c3.18-.58,9.38-2.75,15.59-8.23,8.67-7.51,14.88-19.79,23.98-43.76l19.07-49.83h-13.44Z"/>
  </g>
</svg>