<?xml version="1.0" encoding="UTF-8"?>
<svg id="Layer_1" xmlns="http://www.w3.org/2000/svg" version="1.1" viewBox="0 0 1129 663">
  <!-- Generator: Adobe Illustrator 29.5.0, SVG Export Plug-In . SVG Version: 2.1.0 Build 137)  -->
  <defs>
    <style>
      .st0 {
        fill: #00758d;
        fill-rule: evenodd;
      }
    </style>
  </defs>
  <path class="st0" d="M395.64,167.81c-85.63-56.38-183.06-34.15-235.76,53.79-63.07,105.23-41.12,267.49,49.03,362.42,90.15,94.93,214.36,86.57,277.43-18.66,62.72,41.27,133.56,41.24,188.36-.07l-92.39-180.93,111.62,163.98c10.53-10.74,19.98-23.07,28.19-36.78,8.78,5.78,17.79,10.79,26.96,15,107.11,49.16,214.35-18.74,239.52-151.67,25.17-132.93-41.26-280.55-148.38-329.71l-60.53,209.11,32.81-219.25c-54.65-14.89-108.9-.68-149.98,39.3l35.07,149.84-48.83-134.81c-6.27,7.61-12.06,15.85-17.34,24.64-85.64-56.38-183.07-34.15-235.78,53.79Z"/>
</svg>