<?xml version="1.0" encoding="UTF-8"?>
<svg id="Layer_1" xmlns="http://www.w3.org/2000/svg" version="1.1" viewBox="0 0 1041.28 554.14">
  <!-- Generator: Adobe Illustrator 29.5.0, SVG Export Plug-In . SVG Version: 2.1.0 Build 137)  -->
  <defs>
    <style>
      .st0 {
        fill: #00758d;
      }
    </style>
  </defs>
  <path id="Path_299" class="st0" d="M961.47,438.23c-1.16,2.5-2.32,4.97-3.47,7.4-1.8,3.78-3.58,7.49-5.33,11.12-.78,1.61-1.56,3.19-2.32,4.77-8.6,17.57-16.63,33.11-23.45,45.89-12.6,23.59-37.07,38.42-63.81,38.7l-151.65,1.65h-1.6l-13,.14-11.12.12-34.1.37h-1.38l-17.36.19h-.53l-107,1.16-95.51,1-11.11.12-69,.75h-.08l-44.75.48h-.48l-141.5,1.53-42.33.46c-3.6.04-7.21-.14-10.79-.54h0c-1.22-.14-2.44-.3-3.65-.49-19.74-3.05-37.84-12.77-51.29-27.54-18.21-20.03-31.46-43.4-40.36-68.76-1.29-3.66-2.49-7.37-3.6-11.12-30.81-104.15,6.75-238.52,74.35-328.44,2.83-3.76,5.71-7.43,8.64-11l.07-.08c20.79-25.52,44.1-46.84,68.93-62,44-26.91,92.75-34.49,140.7-11.9,40.57,19.12,78.45,28.11,115.17,30.55,3.71.24,7.42.42,11.11.53,84.23,2.65,163.17-27.7,255.87-47.29,3.69-.78,7.39-1.55,11.12-2.28,66.13-13.16,139.49-20.1,226.73-5.51,9.06,1.48,18.01,3.62,26.76,6.4,3.85,1.24,7.55,2.57,11.12,4,41.64,16.94,64.35,48.24,74,87.46.91,3.64,1.7,7.34,2.37,11.11,17.11,94.34-33,228.16-76.37,321.05Z"/>
</svg>