<?xml version="1.0" encoding="UTF-8"?>
<svg id="Layer_1" xmlns="http://www.w3.org/2000/svg" version="1.1" viewBox="0 0 1088 687.96">
  <!-- Generator: Adobe Illustrator 29.5.0, SVG Export Plug-In . SVG Version: 2.1.0 Build 137)  -->
  <defs>
    <style>
      .st0 {
        fill: #00758d;
      }
    </style>
  </defs>
  <path id="Path_83" class="st0" d="M950.37,468.41c-5.27,45.15-16.22,81.4-31.25,110.31-20,38.52-54.21,54.04-84.77,70.28-8.83,4.68-18.01,8.68-27.46,11.94-55.61,19.3-117.85,14.18-166.74,3.99-34.29-7.15-69.1-11.55-104.09-13.16-9.98-.45-19.97-.67-29.97-.67-15.42.02-293.07,5.29-360.67-131.57-16.69-33.76-28.13-75-32.24-125.27-11.63-142.12,52.29-235.46,134.74-296.47,155.97-115.41,369.76-110.57,523.43,7.88,102.36,78.9,198.2,198.31,179.02,362.74Z"/>
</svg>